<svg width="77" height="77" viewBox="0 0 77 77" fill="none" xmlns="http://www.w3.org/2000/svg">
<rect x="0.5" y="0.5" width="76" height="76" rx="7.5" fill="#CFE8F1"/>
<path d="M29.205 40.069L33.4404 39.2381C34.1643 40.4164 35.0468 41.4652 36.0479 42.3683L34.4572 46.3845C34.2774 46.7272 34.4089 47.1506 34.7511 47.3312L39.0092 49.5713C39.3518 49.7511 39.7752 49.6196 39.9558 49.2774L42.3647 45.6921C43.6759 46.005 45.0402 46.1388 46.4213 46.068L48.1356 50.0291C48.2502 50.3982 48.6428 50.6052 49.0125 50.4904L53.608 49.0634C53.9771 48.9488 54.1841 48.5562 54.0693 48.1866L53.2378 43.9513C54.4159 43.2268 55.4647 42.3443 56.3686 41.3436L60.3846 42.9337C60.7267 43.1137 61.1507 42.9821 61.3312 42.6398L63.5712 38.3812C63.7512 38.0391 63.6197 37.6157 63.2775 37.4352L59.6916 35.0264C60.0056 33.7149 60.1389 32.3507 60.0675 30.9698L64.0286 29.2555C64.3983 29.1407 64.6047 28.7483 64.4899 28.3786L63.0631 23.7837C62.9483 23.414 62.5559 23.2076 62.1862 23.3224L57.9508 24.1533C57.2268 22.975 56.3443 21.9263 55.3433 21.0231L56.934 17.0069C57.1138 16.6643 56.9823 16.2408 56.6402 16.0609L52.382 13.8201C52.0394 13.6403 51.616 13.7718 51.4354 14.1141L49.0265 17.6993C47.7153 17.3865 46.3504 17.2528 44.9693 17.3237L43.2555 13.3624C43.1409 12.9933 42.7484 12.7862 42.3787 12.901L37.7832 14.3281C37.4135 14.4429 37.2071 14.8352 37.3219 15.2049L38.1528 19.4403C36.9747 20.1649 35.9259 21.0474 35.0226 22.0479L31.0066 20.4577C30.6645 20.2777 30.2405 20.4094 30.0599 20.7517L27.82 25.0103C27.64 25.3523 27.7715 25.7757 28.1137 25.9563L31.6996 28.3651C31.3861 29.6764 31.2529 31.0406 31.3237 32.4216L27.3626 34.136C26.9929 34.2508 26.7865 34.6431 26.9013 35.0128L28.3281 39.6077C28.4427 39.9768 28.8353 40.1838 29.205 40.069ZM43.3381 24.1016C47.5326 22.7991 51.9874 25.1433 53.2897 29.3372C54.5921 33.5312 52.248 37.9866 48.0541 39.2889C43.8601 40.5912 39.4048 38.2472 38.1024 34.0533C36.8001 29.8593 39.1441 25.4039 43.3381 24.1016Z" fill="#999A9E"/>
<path d="M13.0742 52.4162L15.353 53.6725C15.2311 54.497 15.2329 55.3236 15.3458 56.1284L13.0559 57.3677C12.8398 57.4563 12.7369 57.7021 12.8252 57.9187L13.9253 60.6022C14.0139 60.8182 14.2603 60.9214 14.4763 60.8328L16.9775 60.1089C17.4618 60.7615 18.0405 61.3517 18.7059 61.8535L17.9638 64.3468C17.8735 64.5624 17.9744 64.8098 18.19 64.9001L20.8651 66.02C21.0801 66.11 21.3277 66.0085 21.4177 65.7935L22.6733 63.5151C23.4977 63.637 24.3243 63.6351 25.1291 63.5223L26.3685 65.8122C26.457 66.0282 26.7034 66.1314 26.9195 66.0429L29.6035 64.943C29.8195 64.8544 29.9224 64.6086 29.8339 64.3926L29.11 61.8914C29.7628 61.4065 30.3522 60.8281 30.8545 60.1629L33.3487 60.9048C33.5637 60.9948 33.8113 60.8934 33.9014 60.6783L35.0215 58.0027C35.1115 57.7876 35.0101 57.54 34.795 57.45L32.516 56.1942C32.6382 55.3692 32.6361 54.5432 32.5232 53.7384L34.8132 52.499C35.0292 52.4105 35.1321 52.1647 35.0436 51.9486L33.9437 49.2646C33.8552 49.0485 33.6088 48.9454 33.3927 49.0339L30.8916 49.7579C30.4073 49.1053 29.8285 48.5151 29.1631 48.0133L29.9053 45.5199C29.9953 45.3049 29.8938 45.0573 29.6788 44.9673L27.0037 43.8474C26.7881 43.7571 26.5405 43.8586 26.4505 44.0736L25.195 46.352C24.3705 46.2301 23.5439 46.2319 22.7391 46.3448L21.4998 44.0549C21.4112 43.8389 21.1648 43.7357 20.9488 43.8242L18.2648 44.9241C18.0487 45.0126 17.9458 45.2585 18.0343 45.4745L18.7583 47.9757C18.1055 48.4606 17.5161 49.039 17.0137 49.7042L14.5198 48.9617C14.3048 48.8717 14.0571 48.9732 13.9671 49.1882L12.847 51.8639C12.7581 52.0794 12.8592 52.3262 13.0742 52.4162ZM25.7855 50.5121C28.2273 51.5344 29.3779 54.3422 28.3559 56.7834C27.3336 59.2252 24.5261 60.3752 22.0843 59.353C19.6425 58.3307 18.4916 55.5235 19.5139 53.0817C20.5359 50.6404 23.3437 49.4898 25.7855 50.5121Z" fill="#999A9E"/>
<rect x="0.5" y="0.5" width="76" height="76" rx="7.5" stroke="#E9F5F8"/>
</svg>
