<svg width="85" height="85" viewBox="0 0 85 85" fill="none" xmlns="http://www.w3.org/2000/svg">
<g filter="url(#filter0_d)">
<rect x="4" width="77" height="77" rx="8" fill="#CFE8F1"/>
<path d="M31 63H22C20.9391 63 19.9217 62.5786 19.1716 61.8284C18.4214 61.0783 18 60.0609 18 59V49.71C18 49.4448 17.8946 49.1905 17.7071 49.0029C17.5196 48.8154 17.2652 48.71 17 48.71C16.7348 48.71 16.4804 48.8154 16.2929 49.0029C16.1054 49.1905 16 49.4448 16 49.71V59C16 60.5913 16.6321 62.1174 17.7574 63.2427C18.8826 64.3679 20.4087 65 22 65H31C31.2652 65 31.5196 64.8947 31.7071 64.7071C31.8946 64.5196 32 64.2652 32 64C32 63.7348 31.8946 63.4805 31.7071 63.2929C31.5196 63.1054 31.2652 63 31 63Z" fill="#999A9E"/>
<path d="M67 48.71C66.7348 48.71 66.4804 48.8154 66.2929 49.0029C66.1053 49.1905 66 49.4448 66 49.71V59C66 60.0609 65.5785 61.0783 64.8284 61.8284C64.0782 62.5786 63.0608 63 62 63H52.47C52.2048 63 51.9504 63.1054 51.7629 63.2929C51.5753 63.4805 51.47 63.7348 51.47 64C51.47 64.2652 51.5753 64.5196 51.7629 64.7071C51.9504 64.8947 52.2048 65 52.47 65H62C63.5913 65 65.1174 64.3679 66.2426 63.2427C67.3678 62.1174 68 60.5913 68 59V49.71C68 49.4448 67.8946 49.1905 67.7071 49.0029C67.5195 48.8154 67.2652 48.71 67 48.71Z" fill="#999A9E"/>
<path d="M62 13H52.47C52.2048 13 51.9504 13.1054 51.7629 13.2929C51.5753 13.4804 51.47 13.7348 51.47 14C51.47 14.2652 51.5753 14.5196 51.7629 14.7071C51.9504 14.8946 52.2048 15 52.47 15H62C63.0608 15 64.0782 15.4214 64.8284 16.1716C65.5785 16.9217 66 17.9391 66 19V28.29C66 28.5552 66.1053 28.8096 66.2929 28.9971C66.4804 29.1846 66.7348 29.29 67 29.29C67.2652 29.29 67.5195 29.1846 67.7071 28.9971C67.8946 28.8096 68 28.5552 68 28.29V19C68 17.4087 67.3678 15.8826 66.2426 14.7574C65.1174 13.6321 63.5913 13 62 13V13Z" fill="#999A9E"/>
<path d="M17 29.29C17.2652 29.29 17.5196 29.1846 17.7071 28.9971C17.8946 28.8096 18 28.5552 18 28.29V19C18 17.9391 18.4214 16.9217 19.1716 16.1716C19.9217 15.4214 20.9391 15 22 15H31C31.2652 15 31.5196 14.8946 31.7071 14.7071C31.8946 14.5196 32 14.2652 32 14C32 13.7348 31.8946 13.4804 31.7071 13.2929C31.5196 13.1054 31.2652 13 31 13H22C20.4087 13 18.8826 13.6321 17.7574 14.7574C16.6321 15.8826 16 17.4087 16 19V28.29C16 28.5552 16.1054 28.8096 16.2929 28.9971C16.4804 29.1846 16.7348 29.29 17 29.29Z" fill="#999A9E"/>
<path d="M25.14 28.29H23.14V37.06H25.14V28.29Z" fill="#999A9E"/>
<path d="M27.5 28.29H26.5V37.06H27.5V28.29Z" fill="#999A9E"/>
<path d="M30 28.29H28V37.06H30V28.29Z" fill="#999A9E"/>
<path d="M50.92 28.29H49.92V37.06H50.92V28.29Z" fill="#999A9E"/>
<path d="M58.5 28.29H57.5V37.06H58.5V28.29Z" fill="#999A9E"/>
<path d="M54.57 28.29H53.57V37.06H54.57V28.29Z" fill="#999A9E"/>
<path d="M47.79 28.29H46.79V37.06H47.79V28.29Z" fill="#999A9E"/>
<path d="M60.86 28.29H58.86V37.06H60.86V28.29Z" fill="#999A9E"/>
<path d="M32.36 28.29H31.36V37.06H32.36V28.29Z" fill="#999A9E"/>
<path d="M45.64 28.29H43.64V37.06H45.64V28.29Z" fill="#999A9E"/>
<path d="M35.29 28.29H34.29V37.06H35.29V28.29Z" fill="#999A9E"/>
<path d="M38.93 28.29H37.93V37.06H38.93V28.29Z" fill="#999A9E"/>
<path d="M42.5 28.29H41.5V37.06H42.5V28.29Z" fill="#999A9E"/>
<path d="M37.11 28.29H36.11V37.06H37.11V28.29Z" fill="#999A9E"/>
<path d="M25.14 40.46H23.14V47.34H25.14V40.46Z" fill="#999A9E"/>
<path d="M27.5 40.46H26.5V47.34H27.5V40.46Z" fill="#999A9E"/>
<path d="M30 40.46H28V47.34H30V40.46Z" fill="#999A9E"/>
<path d="M50.92 40.46H49.92V47.34H50.92V40.46Z" fill="#999A9E"/>
<path d="M58.5 40.46H57.5V47.34H58.5V40.46Z" fill="#999A9E"/>
<path d="M54.57 40.46H53.57V47.34H54.57V40.46Z" fill="#999A9E"/>
<path d="M47.79 40.46H46.79V47.34H47.79V40.46Z" fill="#999A9E"/>
<path d="M60.86 40.46H58.86V47.34H60.86V40.46Z" fill="#999A9E"/>
<path d="M32.36 40.46H31.36V47.34H32.36V40.46Z" fill="#999A9E"/>
<path d="M45.64 40.46H43.64V47.34H45.64V40.46Z" fill="#999A9E"/>
<path d="M35.29 40.46H34.29V47.34H35.29V40.46Z" fill="#999A9E"/>
<path d="M38.93 40.46H37.93V47.34H38.93V40.46Z" fill="#999A9E"/>
<path d="M42.5 40.46H41.5V47.34H42.5V40.46Z" fill="#999A9E"/>
<path d="M37.11 40.46H36.11V47.34H37.11V40.46Z" fill="#999A9E"/>
<path d="M67 38.5H16.76V39.5H67V38.5Z" fill="#999A9E"/>
<path d="M24.64 48.02H23.64V49.71H24.64V48.02Z" fill="#999A9E"/>
<path d="M60.36 48.02H59.36V49.71H60.36V48.02Z" fill="#999A9E"/>
<path d="M27.5 48.02H26.5V49.71H27.5V48.02Z" fill="#999A9E"/>
<path d="M29.5 48.02H28.5V49.71H29.5V48.02Z" fill="#999A9E"/>
<path d="M50.92 48.02H49.92V49.71H50.92V48.02Z" fill="#999A9E"/>
<path d="M58.5 48.02H57.5V49.71H58.5V48.02Z" fill="#999A9E"/>
<path d="M54.57 48.02H53.57V49.71H54.57V48.02Z" fill="#999A9E"/>
<path d="M47.79 48.02H46.79V49.71H47.79V48.02Z" fill="#999A9E"/>
<path d="M32.36 48.02H31.36V49.71H32.36V48.02Z" fill="#999A9E"/>
<path d="M45.14 48.02H44.14V49.71H45.14V48.02Z" fill="#999A9E"/>
<path d="M35.29 48.02H34.29V49.71H35.29V48.02Z" fill="#999A9E"/>
<path d="M37.11 48.02H36.11V49.71H37.11V48.02Z" fill="#999A9E"/>
<path d="M38.93 48.02H37.93V49.71H38.93V48.02Z" fill="#999A9E"/>
<path d="M42.5 48.02H41.5V49.71H42.5V48.02Z" fill="#999A9E"/>
<rect x="4.5" y="0.5" width="76" height="76" rx="7.5" stroke="#E9F5F8"/>
</g>
<defs>
<filter id="filter0_d" x="0" y="0" width="85" height="85" filterUnits="userSpaceOnUse" color-interpolation-filters="sRGB">
<feFlood flood-opacity="0" result="BackgroundImageFix"/>
<feColorMatrix in="SourceAlpha" type="matrix" values="0 0 0 0 0 0 0 0 0 0 0 0 0 0 0 0 0 0 127 0"/>
<feOffset dy="4"/>
<feGaussianBlur stdDeviation="2"/>
<feColorMatrix type="matrix" values="0 0 0 0 0 0 0 0 0 0 0 0 0 0 0 0 0 0 0.25 0"/>
<feBlend mode="normal" in2="BackgroundImageFix" result="effect1_dropShadow"/>
<feBlend mode="normal" in="SourceGraphic" in2="effect1_dropShadow" result="shape"/>
</filter>
</defs>
</svg>
