<svg width="77" height="77" viewBox="0 0 77 77" fill="none" xmlns="http://www.w3.org/2000/svg">
<rect x="0.5" y="0.5" width="76" height="76" rx="7.5" fill="#CFE8F1"/>
<path d="M27 63H18C16.9391 63 15.9217 62.5786 15.1716 61.8284C14.4214 61.0783 14 60.0609 14 59V49.71C14 49.4448 13.8946 49.1905 13.7071 49.0029C13.5196 48.8154 13.2652 48.71 13 48.71C12.7348 48.71 12.4804 48.8154 12.2929 49.0029C12.1054 49.1905 12 49.4448 12 49.71V59C12 60.5913 12.6321 62.1174 13.7574 63.2427C14.8826 64.3679 16.4087 65 18 65H27C27.2652 65 27.5196 64.8947 27.7071 64.7071C27.8946 64.5196 28 64.2652 28 64C28 63.7348 27.8946 63.4805 27.7071 63.2929C27.5196 63.1054 27.2652 63 27 63Z" fill="#999A9E"/>
<path d="M63 48.71C62.7348 48.71 62.4804 48.8154 62.2929 49.0029C62.1054 49.1905 62 49.4448 62 49.71V59C62 60.0609 61.5786 61.0783 60.8284 61.8284C60.0783 62.5786 59.0609 63 58 63H48.47C48.2048 63 47.9504 63.1054 47.7629 63.2929C47.5754 63.4805 47.47 63.7348 47.47 64C47.47 64.2652 47.5754 64.5196 47.7629 64.7071C47.9504 64.8947 48.2048 65 48.47 65H58C59.5913 65 61.1174 64.3679 62.2426 63.2427C63.3679 62.1174 64 60.5913 64 59V49.71C64 49.4448 63.8946 49.1905 63.7071 49.0029C63.5196 48.8154 63.2652 48.71 63 48.71Z" fill="#999A9E"/>
<path d="M58 13H48.47C48.2048 13 47.9504 13.1054 47.7629 13.2929C47.5754 13.4804 47.47 13.7348 47.47 14C47.47 14.2652 47.5754 14.5196 47.7629 14.7071C47.9504 14.8946 48.2048 15 48.47 15H58C59.0609 15 60.0783 15.4214 60.8284 16.1716C61.5786 16.9217 62 17.9391 62 19V28.29C62 28.5552 62.1054 28.8096 62.2929 28.9971C62.4804 29.1846 62.7348 29.29 63 29.29C63.2652 29.29 63.5196 29.1846 63.7071 28.9971C63.8946 28.8096 64 28.5552 64 28.29V19C64 17.4087 63.3679 15.8826 62.2426 14.7574C61.1174 13.6321 59.5913 13 58 13V13Z" fill="#999A9E"/>
<path d="M13 29.29C13.2652 29.29 13.5196 29.1846 13.7071 28.9971C13.8946 28.8096 14 28.5552 14 28.29V19C14 17.9391 14.4214 16.9217 15.1716 16.1716C15.9217 15.4214 16.9391 15 18 15H27C27.2652 15 27.5196 14.8946 27.7071 14.7071C27.8946 14.5196 28 14.2652 28 14C28 13.7348 27.8946 13.4804 27.7071 13.2929C27.5196 13.1054 27.2652 13 27 13H18C16.4087 13 14.8826 13.6321 13.7574 14.7574C12.6321 15.8826 12 17.4087 12 19V28.29C12 28.5552 12.1054 28.8096 12.2929 28.9971C12.4804 29.1846 12.7348 29.29 13 29.29Z" fill="#999A9E"/>
<path d="M21.14 28.29H19.14V37.06H21.14V28.29Z" fill="#999A9E"/>
<path d="M23.5 28.29H22.5V37.06H23.5V28.29Z" fill="#999A9E"/>
<path d="M26 28.29H24V37.06H26V28.29Z" fill="#999A9E"/>
<path d="M46.92 28.29H45.92V37.06H46.92V28.29Z" fill="#999A9E"/>
<path d="M54.5 28.29H53.5V37.06H54.5V28.29Z" fill="#999A9E"/>
<path d="M50.57 28.29H49.57V37.06H50.57V28.29Z" fill="#999A9E"/>
<path d="M43.79 28.29H42.79V37.06H43.79V28.29Z" fill="#999A9E"/>
<path d="M56.86 28.29H54.86V37.06H56.86V28.29Z" fill="#999A9E"/>
<path d="M28.36 28.29H27.36V37.06H28.36V28.29Z" fill="#999A9E"/>
<path d="M41.64 28.29H39.64V37.06H41.64V28.29Z" fill="#999A9E"/>
<path d="M31.29 28.29H30.29V37.06H31.29V28.29Z" fill="#999A9E"/>
<path d="M34.93 28.29H33.93V37.06H34.93V28.29Z" fill="#999A9E"/>
<path d="M38.5 28.29H37.5V37.06H38.5V28.29Z" fill="#999A9E"/>
<path d="M33.11 28.29H32.11V37.06H33.11V28.29Z" fill="#999A9E"/>
<path d="M21.14 40.46H19.14V47.34H21.14V40.46Z" fill="#999A9E"/>
<path d="M23.5 40.46H22.5V47.34H23.5V40.46Z" fill="#999A9E"/>
<path d="M26 40.46H24V47.34H26V40.46Z" fill="#999A9E"/>
<path d="M46.92 40.46H45.92V47.34H46.92V40.46Z" fill="#999A9E"/>
<path d="M54.5 40.46H53.5V47.34H54.5V40.46Z" fill="#999A9E"/>
<path d="M50.57 40.46H49.57V47.34H50.57V40.46Z" fill="#999A9E"/>
<path d="M43.79 40.46H42.79V47.34H43.79V40.46Z" fill="#999A9E"/>
<path d="M56.86 40.46H54.86V47.34H56.86V40.46Z" fill="#999A9E"/>
<path d="M28.36 40.46H27.36V47.34H28.36V40.46Z" fill="#999A9E"/>
<path d="M41.64 40.46H39.64V47.34H41.64V40.46Z" fill="#999A9E"/>
<path d="M31.29 40.46H30.29V47.34H31.29V40.46Z" fill="#999A9E"/>
<path d="M34.93 40.46H33.93V47.34H34.93V40.46Z" fill="#999A9E"/>
<path d="M38.5 40.46H37.5V47.34H38.5V40.46Z" fill="#999A9E"/>
<path d="M33.11 40.46H32.11V47.34H33.11V40.46Z" fill="#999A9E"/>
<path d="M63 38.5H12.76V39.5H63V38.5Z" fill="#999A9E"/>
<path d="M20.64 48.02H19.64V49.71H20.64V48.02Z" fill="#999A9E"/>
<path d="M56.36 48.02H55.36V49.71H56.36V48.02Z" fill="#999A9E"/>
<path d="M23.5 48.02H22.5V49.71H23.5V48.02Z" fill="#999A9E"/>
<path d="M25.5 48.02H24.5V49.71H25.5V48.02Z" fill="#999A9E"/>
<path d="M46.92 48.02H45.92V49.71H46.92V48.02Z" fill="#999A9E"/>
<path d="M54.5 48.02H53.5V49.71H54.5V48.02Z" fill="#999A9E"/>
<path d="M50.57 48.02H49.57V49.71H50.57V48.02Z" fill="#999A9E"/>
<path d="M43.79 48.02H42.79V49.71H43.79V48.02Z" fill="#999A9E"/>
<path d="M28.36 48.02H27.36V49.71H28.36V48.02Z" fill="#999A9E"/>
<path d="M41.14 48.02H40.14V49.71H41.14V48.02Z" fill="#999A9E"/>
<path d="M31.29 48.02H30.29V49.71H31.29V48.02Z" fill="#999A9E"/>
<path d="M33.11 48.02H32.11V49.71H33.11V48.02Z" fill="#999A9E"/>
<path d="M34.93 48.02H33.93V49.71H34.93V48.02Z" fill="#999A9E"/>
<path d="M38.5 48.02H37.5V49.71H38.5V48.02Z" fill="#999A9E"/>
<rect x="0.5" y="0.5" width="76" height="76" rx="7.5" stroke="#E9F5F8"/>
</svg>
